<svg id="visual" viewBox="0 0 900 600" width="900" height="600" xmlns="http://www.w3.org/2000/svg" xmlns:xlink="http://www.w3.org/1999/xlink" version="1.1"><path d="M0 412L21.5 402.5C43 393 86 374 128.8 375.5C171.7 377 214.3 399 257.2 409.2C300 419.3 343 417.7 385.8 406.7C428.7 395.7 471.3 375.3 514.2 378C557 380.7 600 406.3 642.8 414.2C685.7 422 728.3 412 771.2 411.2C814 410.3 857 418.7 878.5 422.8L900 427L900 601L878.5 601C857 601 814 601 771.2 601C728.3 601 685.7 601 642.8 601C600 601 557 601 514.2 601C471.3 601 428.7 601 385.8 601C343 601 300 601 257.2 601C214.3 601 171.7 601 128.8 601C86 601 43 601 21.5 601L0 601Z" fill="#fa7268"></path><path d="M0 410L21.5 417.3C43 424.7 86 439.3 128.8 445.5C171.7 451.7 214.3 449.3 257.2 451.8C300 454.3 343 461.7 385.8 466C428.7 470.3 471.3 471.7 514.2 471.2C557 470.7 600 468.3 642.8 469.3C685.7 470.3 728.3 474.7 771.2 463.3C814 452 857 425 878.5 411.5L900 398L900 601L878.5 601C857 601 814 601 771.2 601C728.3 601 685.7 601 642.8 601C600 601 557 601 514.2 601C471.3 601 428.7 601 385.8 601C343 601 300 601 257.2 601C214.3 601 171.7 601 128.8 601C86 601 43 601 21.5 601L0 601Z" fill="#ef5f67"></path><path d="M0 470L21.5 466.3C43 462.7 86 455.3 128.8 455.3C171.7 455.3 214.3 462.7 257.2 465.5C300 468.3 343 466.7 385.8 463.3C428.7 460 471.3 455 514.2 458.5C557 462 600 474 642.8 476.8C685.7 479.7 728.3 473.3 771.2 474.2C814 475 857 483 878.5 487L900 491L900 601L878.5 601C857 601 814 601 771.2 601C728.3 601 685.7 601 642.8 601C600 601 557 601 514.2 601C471.3 601 428.7 601 385.8 601C343 601 300 601 257.2 601C214.3 601 171.7 601 128.8 601C86 601 43 601 21.5 601L0 601Z" fill="#e34c67"></path><path d="M0 513L21.5 509.2C43 505.3 86 497.7 128.8 501.2C171.7 504.7 214.3 519.3 257.2 526.5C300 533.7 343 533.3 385.8 529.2C428.7 525 471.3 517 514.2 514.8C557 512.7 600 516.3 642.8 516C685.7 515.7 728.3 511.3 771.2 509.3C814 507.3 857 507.7 878.5 507.8L900 508L900 601L878.5 601C857 601 814 601 771.2 601C728.3 601 685.7 601 642.8 601C600 601 557 601 514.2 601C471.3 601 428.7 601 385.8 601C343 601 300 601 257.2 601C214.3 601 171.7 601 128.8 601C86 601 43 601 21.5 601L0 601Z" fill="#d53867"></path><path d="M0 550L21.5 554C43 558 86 566 128.8 562.5C171.7 559 214.3 544 257.2 537.3C300 530.7 343 532.3 385.8 534.8C428.7 537.3 471.3 540.7 514.2 540.5C557 540.3 600 536.7 642.8 534.3C685.7 532 728.3 531 771.2 536C814 541 857 552 878.5 557.5L900 563L900 601L878.5 601C857 601 814 601 771.2 601C728.3 601 685.7 601 642.8 601C600 601 557 601 514.2 601C471.3 601 428.7 601 385.8 601C343 601 300 601 257.2 601C214.3 601 171.7 601 128.8 601C86 601 43 601 21.5 601L0 601Z" fill="#c62368"></path></svg>